# xmcd
#
# Track frame offsets: 
#        150
#        22357
#        38502
#        60049
#        82826
#        106802
#        124612
#        143854
#        160612
#        183265
#        203522
#        223812
#        243178
#        263414
#        280622
#
# Disc length: 4047 seconds
#
# Revision: 0
# Processed by: cddbd v1.5.1PL2 Copyright (c) Steve Scherf et al.
# Submitted via: ExactAudioCopy v0.95b3
#
DISCID=b60fcd0f
DTITLE=彭佳慧 - 精选
DYEAR=2001
DGENRE=Pop
TTITLE0=真心话
TTITLE1=不要问
TTITLE2=旧梦
TTITLE3=回味
TTITLE4=陪他
TTITLE5=甘愿
TTITLE6=相见恨晚
TTITLE7=搞搞我的头
TTITLE8=月亮使者
TTITLE9=走在红毯那天
TTITLE10=真的爱
TTITLE11=死心眼
TTITLE12=说真的
TTITLE13=快乐的人请举手
TTITLE14=听说爱情回来过
EXTD=
EXTT0=
EXTT1=
EXTT2=
EXTT3=
EXTT4=
EXTT5=
EXTT6=
EXTT7=
EXTT8=
EXTT9=
EXTT10=
EXTT11=
EXTT12=
EXTT13=
EXTT14=
PLAYORDER=
